<svg height="512" viewBox="0 0 60 46" width="512" xmlns="http://www.w3.org/2000/svg"><g id="Page-1" fill="none" fill-rule="evenodd"><g id="030---Fast-Delivery"><rect id="Rectangle" fill="#91562d" height="32" rx="3" width="32" x="7" y="1"/><path id="Path" d="m36 1h-3c1.6568542 0 3 1.34314575 3 3v26c0 1.6568542-1.3431458 3-3 3h3c1.6568542 0 3-1.3431458 3-3v-26c0-1.65685425-1.3431458-3-3-3z" fill="#6d4122"/><path id="Path" d="m29 1v9c0 .5522847-.4477153 1-1 1h-10c-.5522847 0-1-.4477153-1-1v-9z" fill="#ff9801"/><rect id="Rectangle" fill="#f5f5f5" height="5" rx="1" width="7" x="28" y="24"/><path id="Path" d="m59 34v3c0 .5522847-.4477153 1-1 1h-2.09c-.4837665-2.8867789-2.9829672-5.0011619-5.91-5.0000005l8 .0000005c.5522847 0 1 .4477153 1 1z" fill="#7f8e94"/><path id="Path" d="m50 32.9999995c-2.9270328-.0011614-5.4262335 2.1132216-5.91 5.0000005h-21.18c-.4837665-2.8867789-2.9829672-5.0011619-5.91-5.0000005z" fill="#7f8e94"/><path id="Path" d="m17 32.9999995c-2.9270328-.0011614-5.4262335 2.1132216-5.91 5.0000005h-4.09c-.55228475 0-1-.4477153-1-1v-3c0-.5522847.44771525-1 1-1z" fill="#7f8e94"/><path id="Path" d="m58 23v10h-14v-22h4v10c.0032948 1.1032019.8967981 1.9967052 2 2z" fill="#ffdc00"/><path id="Rectangle" d="m55 23h3v10h-3z" fill="#fec108"/><path id="Path" d="m44 10v23h-8c1.6568542 0 3-1.3431458 3-3v-22h3c1.1032019.0032948 1.9967052.89679813 2 2z" fill="#607d8b"/><path id="Path" d="m58 23h-8c-1.1032019-.0032948-1.9967052-.8967981-2-2v-10.0000131l5.44.0000131c.9171798-.0033108 1.7180765.6200676 1.94 1.51z" fill="#02a9f4"/><path id="Path" d="m55.38 12.51c-.2219235-.8899324-1.0228202-1.5133108-1.94-1.51l-3-.0000131c.9171798-.0032977 1.7180765.6200807 1.94 1.5100131l2.62 10.49h3z" fill="#0377bc"/><path id="Path" d="m23 39c0 3.3137085-2.6862915 5.9999999-6 5.9999999s-6-2.6862914-6-5.9999999c-.0007205-.3353876.0294064-.6701307.09-1 .4853307-2.8857455 2.9837271-4.9990438 5.91-4.9990438s5.4246693 2.1132983 5.91 4.9990438c.0605936.3298693.0907205.6646124.09 1z" fill="#607d8b"/><path id="Path" d="m22.91 38c-.2583624-1.6653138-1.2158309-3.1409392-2.631376-4.0554081-1.415545-.9144689-3.1543243-1.1806703-4.778624-.7315919 2.2862335.5849606 4.0141204 2.4605603 4.41 4.787.0605936.3298693.0907205.6646124.09 1-.0043159 2.7324612-1.8543017 5.1168873-4.5 5.8 1.7960526.4728677 3.7098678.0840928 5.1790576-1.0520807 1.4691898-1.1361734 2.3268468-2.8906703 2.3209424-4.7479193.0007205-.3353876-.0294064-.6701307-.09-1z" fill="#37474f"/><circle id="Oval" cx="17" cy="39" fill="#7f8e94" r="2"/><path id="Path" d="m56 39c-.0000001 3.3137084-2.6862916 5.9999998-6 5.9999998s-5.9999999-2.6862914-6-5.9999998c-.0007205-.3353876.0294064-.6701307.09-1 .4853307-2.8857455 2.9837271-4.9990438 5.91-4.9990438s5.4246693 2.1132983 5.91 4.9990438c.0605936.3298693.0907205.6646124.09 1z" fill="#607d8b"/><path id="Path" d="m55.91 38c-.2583624-1.6653138-1.2158309-3.1409392-2.631376-4.0554081-1.415545-.9144689-3.1543243-1.1806703-4.778624-.7315919 2.2862335.5849606 4.0141204 2.4605603 4.41 4.787.0605936.3298693.0907205.6646124.09 1-.0043159 2.7324612-1.8543017 5.1168873-4.5 5.8 1.7960526.4728677 3.7098678.0840928 5.1790576-1.0520807 1.4691898-1.1361734 2.3268468-2.8906703 2.3209424-4.7479193.0007205-.3353876-.0294064-.6701307-.09-1z" fill="#37474f"/><circle id="Oval" cx="50" cy="39" fill="#7f8e94" r="2"/><g fill="#000"><path id="Path" d="m20 26v3c0 .5522847.4477153 1 1 1s1-.4477153 1-1v-3c.4043959-.0000863.7689341-.2437275.923678-.6173454.1547439-.373618.0692299-.8036603-.216678-1.0896546l-1-1c-.3904999-.3903819-1.0235001-.3903819-1.414 0l-1 1c-.2859079.2859943-.3714219.7160366-.216678 1.0896546.1547439.3736179.5192821.6172591.923678.6173454z"/><path id="Path" d="m14 26v3c0 .5522847.4477153 1 1 1s1-.4477153 1-1v-3c.4043959-.0000863.7689341-.2437275.923678-.6173454.1547439-.373618.0692299-.8036603-.216678-1.0896546l-1-1c-.3904999-.3903819-1.0235001-.3903819-1.414 0l-1 1c-.2859079.2859943-.3714219.7160366-.216678 1.0896546.1547439.3736179.5192821.6172591.923678.6173454z"/><path id="Shape" d="m29 30h5c1.1045695 0 2-.8954305 2-2v-3c0-1.1045695-.8954305-2-2-2h-5c-1.1045695 0-2 .8954305-2 2v3c0 1.1045695.8954305 2 2 2zm0-5h5v3h-5z" fill-rule="nonzero"/><path id="Shape" d="m59 32.278v-9.278c-.0000086-.0819231-.0100841-.1635346-.03-.243l-2.621-10.485c-.3340796-1.335552-1.5342981-2.27230783-2.911-2.272h-8.438c0-1.65685425-1.3431458-3-3-3h-2v-3c0-2.209139-1.790861-4-4-4h-26c-2.209139 0-4 1.790861-4 4v2h-5c-.55228475 0-1 .44771525-1 1s.44771525 1 1 1h5v2h-2c-.55228475 0-1 .4477153-1 1s.44771525 1 1 1h2v2h-5c-.55228475 0-1 .4477153-1 1s.44771525 1 1 1h5v2h-2c-.55228475 0-1 .4477153-1 1s.44771525 1 1 1h2v2h-5c-.55228475 0-1 .4477153-1 1s.44771525 1 1 1h5v2h-2c-.55228475 0-1 .4477153-1 1s.44771525 1 1 1h2v2c.00336544.7222357.20428686 1.4297834.581 2.046-.9215765.1974517-1.58023779 1.0115087-1.581 1.954v3c0 1.1045695.8954305 2 2 2h3c0 3.8659932 3.1340068 7 7 7s7-3.1340068 7-7h19c0 3.8659932 3.1340068 7 7 7s7-3.1340068 7-7h1c1.1045695 0 2-.8954305 2-2v-3c-.002145-.7113268-.3832487-1.3675874-1-1.722zm-4.591-19.52 2.31 9.242h-6.719c-.5522847 0-1-.4477153-1-1v-9.0000003l4.438.0000003c.4593433-.0003324.859839.31231.971.758zm-7.409-.758v9c0 1.6568542 1.3431458 3 3 3h7v8h-12v-20zm-5-3c.5522847 0 1 .44771525 1 1v22h-3.556c.3599241-.6053465.5518554-1.2957468.556-2v-21zm-24 1v-8h4v8zm6-8h4v8h-4zm-14 24h-2v-2h2c.5522847 0 1-.4477153 1-1s-.4477153-1-1-1h-2v-2h4c.5522847 0 1-.4477153 1-1s-.4477153-1-1-1h-4v-2h3c.5522847 0 1-.4477153 1-1s-.4477153-1-1-1h-3v-2h4c.5522847 0 1-.4477153 1-1s-.4477153-1-1-1h-4v-2h3c.5522847 0 1-.44771525 1-1s-.4477153-1-1-1h-3v-2c0-1.1045695.8954305-2 2-2h6v8c0 1.1045695.8954305 2 2 2h10c1.1045695 0 2-.8954305 2-2v-8h6c1.1045695 0 2 .8954305 2 2v26c0 1.1045695-.8954305 2-2 2h-26c-1.1045695 0-2-.8954305-2-2v-2h2c.5522847 0 1-.4477153 1-1s-.4477153-1-1-1zm-3 11v-3h5.111c-.8482546.8302829-1.4714482 1.8626302-1.811 3zm10 7c-2.7614237 0-5-2.2385763-5-5s2.2385763-5 5-5 5 2.2385763 5 5c-.0033061 2.7600532-2.2399468 4.9966939-5 5zm6.7-7c-.3409826-1.1378864-.9659267-2.1702831-1.816-3h23.227c-.8482546.8302829-1.4714482 1.8626302-1.811 3zm26.3 7c-2.7614237 0-5-2.2385763-5-5s2.2385763-5 5-5 5 2.2385763 5 5c-.0033061 2.7600532-2.2399468 4.9966939-5 5zm8-7h-1.3c-.3409826-1.1378864-.9659267-2.1702831-1.816-3h3.116z" fill-rule="nonzero"/><path id="Shape" d="m17 36c-1.6568542 0-3 1.3431458-3 3s1.3431458 3 3 3 3-1.3431458 3-3-1.3431458-3-3-3zm0 4c-.5522847 0-1-.4477153-1-1s.4477153-1 1-1 1 .4477153 1 1-.4477153 1-1 1z" fill-rule="nonzero"/><path id="Shape" d="m50 36c-1.6568542 0-3 1.3431458-3 3s1.3431458 3 3 3 3-1.3431458 3-3-1.3431458-3-3-3zm0 4c-.5522847 0-1-.4477153-1-1s.4477153-1 1-1 1 .4477153 1 1-.4477153 1-1 1z" fill-rule="nonzero"/></g></g></g></svg>