<svg height="512" viewBox="0 0 60 60" width="512" xmlns="http://www.w3.org/2000/svg"><g id="Page-1" fill="none" fill-rule="evenodd"><g id="035---Good-Packaging"><path id="Path" d="m59 43c-.0000019 7.467749-5.1658875 13.9423516-12.447207 15.6005621-7.2813194 1.6582104-14.7413696-1.9410263-17.974999-8.6723647-3.2336293-6.7313384-1.3807491-14.8043606 4.4645168-19.4519559 5.8452659-4.6475952 14.1281795-4.6335846 19.9576892.0337585 3.792548 3.0364686 6.0000012 7.6316503 6 12.49z" fill="#60a917"/><path id="Path" d="m53 30.51c-2.8345577-2.2778862-6.3635952-3.5165784-10-3.51-.5 0-1 .03-1.487.075 8.187799.7885558 14.4436261 7.6569434 14.4660991 15.8825965.0224731 8.225653-6.195731 15.1281206-14.3790991 15.9614035.463.041.927.081 1.4.081 6.7938688.0000021 12.8469543-4.2904933 15.0970237-10.7009411 2.2500695-6.4104478.2064401-13.542893-5.0970237-17.7890589z" fill="#549414"/><path id="Path" d="m53 4v26.51c-6.3661309-5.0970007-15.5471421-4.590315-21.3137286 1.1762714-5.7665864 5.7665865-6.2732721 14.9475977-1.1762714 21.3137286h-26.51c-1.65685425 0-3-1.3431458-3-3v-46c0-1.65685425 1.34314575-3 3-3h46c1.6568542 0 3 1.34314575 3 3z" fill="#91562d"/><path id="Path" d="m41.513 27.075c-.5-.047-1-.075-1.513-.075-6.1516114-.0000015-11.7584817 3.5268077-14.4222082 9.071795-2.6637266 5.5449872-1.9125489 12.1261049 1.9322082 16.928205h3c-3.6738957-4.5925282-4.53211-10.8304012-2.2349297-16.2444374 2.2971802-5.4140362 7.3794006-9.1313776 13.2349297-9.6805626z" fill="#6d4122"/><path id="Path" d="m50 1h-3c1.6568542 0 3 1.34314575 3 3v24.621c1.0671082.5161944 2.073326 1.1497762 3 1.889v-26.51c0-1.65685425-1.3431458-3-3-3z" fill="#6d4122"/><path id="Path" d="m36 1v15c0 1.1045695-.8954305 2-2 2h-14c-1.1045695 0-2-.8954305-2-2v-15z" fill="#ff9801"/><path id="Path" d="m33 1v15c0 1.1045695-.8954305 2-2 2h3c1.1045695 0 2-.8954305 2-2v-15z" fill="#f57c00"/><g fill="#000"><path id="Shape" d="m54 30.062v-26.062c0-2.209139-1.790861-4-4-4h-46c-2.209139 0-4 1.790861-4 4v46c0 2.209139 1.790861 4 4 4h26.062c4.1397471 4.8826108 10.6731516 7.0228436 16.8994344 5.5359688 6.2262828-1.4868747 11.0876597-6.3482516 12.5745344-12.5745344 1.4868748-6.2262828-.653358-12.7596873-5.5359688-16.8994344zm-35-28.062h7v15h-6c-.5522847 0-1-.4477153-1-1zm9 0h7v14c0 .5522847-.4477153 1-1 1h-6zm-24 50c-1.1045695 0-2-.8954305-2-2v-46c0-1.1045695.8954305-2 2-2h13v14c0 1.6568542 1.3431458 3 3 3h14c1.6568542 0 3-1.3431458 3-3v-14h13c1.1045695 0 2 .8954305 2 2v24.6c-6.7041218-4.2241528-15.4393161-3.2454498-21.0423829 2.3576171-5.6030669 5.6030668-6.5817699 14.3382611-2.3576171 21.0423829zm39 6c-8.2842712 0-15-6.7157288-15-15s6.7157288-15 15-15 15 6.7157288 15 15c-.0093685 8.2803876-6.7196124 14.9906315-15 15z" fill-rule="nonzero"/><path id="Path" d="m8.707 37.293c-.39049985-.3903819-1.02350015-.3903819-1.414 0l-2 2c-.37897221.3923789-.37355237 1.0160848.01218142 1.4018186.3857338.3857338 1.00943969.3911536 1.40181858.0121814l.293-.293v5.586c0 .5522847.44771525 1 1 1s1-.4477153 1-1v-5.586l.293.293c.39237889.3789722 1.0160848.3735524 1.4018186-.0121814s.3911536-1.0094397.0121814-1.4018186z"/><path id="Path" d="m16.707 37.293c-.3904999-.3903819-1.0235001-.3903819-1.414 0l-2 2c-.3789722.3923789-.3735524 1.0160848.0121814 1.4018186s1.0094397.3911536 1.4018186.0121814l.293-.293v5.586c0 .5522847.4477153 1 1 1s1-.4477153 1-1v-5.586l.293.293c.3923789.3789722 1.0160848.3735524 1.4018186-.0121814s.3911536-1.0094397.0121814-1.4018186z"/><path id="Path" d="m49.214 35.382-10.304 13.118-2.2-2.2c-.3923789-.3789722-1.0160848-.3735524-1.4018186.0121814s-.3911536 1.0094397-.0121814 1.4018186l3 3c.1878936.1842516.4408429.2870123.704.286h.06c.2851702-.0171478.5493902-.1554447.726-.38l11-14c.2280071-.2802095.2871582-.6616098.1547354-.9977182-.1324228-.3361083-.4358297-.5746649-.7936927-.6240484-.3578629-.0493835-.7145396.0980845-.9330427.3857666z"/></g></g></g></svg>