<svg height="512" viewBox="0 0 44 60" width="512" xmlns="http://www.w3.org/2000/svg"><g id="Page-1" fill="none" fill-rule="evenodd"><g id="067---Mobile-Payment"><path id="Path" d="m39 51v5c0 1.6568542-1.3431458 3-3 3h-28c-1.65685425 0-3-1.3431458-3-3v-5c0 1.6568542 1.34314575 3 3 3h28c1.6568542 0 3-1.3431458 3-3z" fill="#7f8e94"/><path id="Path" d="m36 54v2c0 1.6568542-1.3431458 3-3 3h3c1.6568542 0 3-1.3431458 3-3v-5c0 1.6568542-1.3431458 3-3 3z" fill="#545c60"/><path id="Path" d="m39 36v15c0 1.6568542-1.3431458 3-3 3h-28c-1.65685425 0-3-1.3431458-3-3v-15h11.71c-2.4961939 2.2003251-3.3697364 5.7160543-2.1936688 8.828815 1.1760675 3.1127608 4.156145 5.1725099 7.4836688 5.1725099s6.3076013-2.0597491 7.4836688-5.1725099c1.1760676-3.1127607.3025251-6.6284899-2.1936688-8.828815z" fill="#02a9f4"/><path id="Path" d="m36 36v15c0 1.6568542-1.3431458 3-3 3h3c1.6568542 0 3-1.3431458 3-3v-15z" fill="#0377bc"/><path id="Path" d="m5 9v-5c0-1.65685425 1.34314575-3 3-3h28c1.6568542 0 3 1.34314575 3 3v5z" fill="#02a9f4"/><path id="Path" d="m36 1h-3c1.6568542 0 3 1.34314575 3 3v5h3v-5c0-1.65685425-1.3431458-3-3-3z" fill="#0377bc"/><path id="Path" d="m32 1-2.861 3.052c-.5672653.60498515-1.3596648.94815313-2.189.948h-9.9c-.8293352.00015313-1.6217347-.34301485-2.189-.948l-2.861-3.052z" fill="#7f8e94"/><path id="Path" d="m43 12v21c0 1.6568542-1.3431458 3-3 3h-12.71c-3.0232385-2.6649002-7.5567615-2.6649002-10.58 0h-12.71c-1.65685425 0-3-1.3431458-3-3v-21c0-1.6568542 1.34314575-3 3-3h36c1.6568542 0 3 1.3431458 3 3z" fill="#ffdc00"/><path id="Path" d="m40 9h-3c1.6568542 0 3 1.3431458 3 3v21c0 1.6568542-1.3431458 3-3 3h3c1.6568542 0 3-1.3431458 3-3v-21c0-1.6568542-1.3431458-3-3-3z" fill="#fec108"/><rect id="Rectangle" fill="#ff9801" height="6" rx="1" width="6" x="7" y="14"/><path id="Path" d="m30 42c.0006243 3.7694721-2.6301723 7.0279793-6.3150931 7.8218805s-7.4241064-1.0922194-8.9757245-4.5275362-.4946556-7.4876976 2.5371847-9.7275335c3.0318402-2.239836 7.2159045-2.0593742 10.0436329.4331892 1.7225613 1.5183895 2.7096197 3.7037587 2.71 6z" fill="#60a917"/><path id="Path" d="m27.29 36c-1.8545773-1.6353767-4.3611537-2.3212705-6.79-1.858 3.7678153.7234193 6.4915545 4.0198651 6.4915545 7.8565s-2.7237392 7.1330807-6.4915545 7.8565c2.3424542.452662 4.7646031-.1658212 6.6032741-1.6861118 1.8386711-1.5202906 2.9012199-3.7831023 2.8967259-6.1688882.0028714-2.2969406-.9847642-4.4835878-2.71-6z" fill="#549414"/><g fill="#000"><path id="Path" d="m19.293 45.707c.1870531.1882061.4416514.2937185.707.293h.045c.2807142-.0130841.5431913-.1428725.724-.358l5-6c.2290073-.2747372.2940481-.6507788.1706223-.9864735-.1234258-.3356948-.416567-.5800426-.769-.6410001-.3524331-.0609574-.7106151.0707364-.9396223.3454736l-4.3 5.16-.226-.226c-.3923789-.3789722-1.0160848-.3735524-1.4018186.0121814s-.3911536 1.0094397-.0121814 1.4018186z"/><path id="Shape" d="m4 56c0 2.209139 1.790861 4 4 4h28c2.209139 0 4-1.790861 4-4v-19c2.209139 0 4-1.790861 4-4v-21c0-2.209139-1.790861-4-4-4v-4c0-2.209139-1.790861-4-4-4h-28c-2.209139 0-4 1.790861-4 4v4c-2.209139 0-4 1.790861-4 4v21c0 2.209139 1.790861 4 4 4zm32 2h-28c-1.1045695 0-2-.8954305-2-2v-1.556c.60534654.3599241 1.29574677.5518554 2 .556h28c.7042532-.0041446 1.3946535-.1960759 2-.556v1.556c0 1.1045695-.8954305 2-2 2zm-6.309-56-1.283 1.368c-.3778598.40298537-.9055734.63173367-1.458.632h-9.9c-.5526257-.00070589-1.0804819-.22935917-1.459-.632l-1.282-1.368zm-23.691 2c0-1.1045695.8954305-2 2-2h3.567l2.565 2.735c.7567936.80574999 1.8125738 1.2634477 2.918 1.265h9.9c1.1055502-.00095651 2.1615565-.45875227 2.918-1.265l2.565-2.735h3.567c1.1045695 0 2 .8954305 2 2v4h-32zm-4 29v-21c0-1.1045695.8954305-2 2-2h36c1.1045695 0 2 .8954305 2 2v21c0 1.1045695-.8954305 2-2 2h-12.355c-3.2910058-2.6664777-7.9989942-2.6664777-11.29 0h-12.355c-1.1045695 0-2-.8954305-2-2zm20 2c3.8659932 0 7 3.1340068 7 7s-3.1340068 7-7 7-7-3.1340068-7-7c.0049584-3.8639376 3.1360624-6.9950416 7-7zm-7.478 2c-2.5144699 3.7546749-1.854893 8.7917597 1.5415322 11.7724372s8.4765104 2.9806775 11.8729356 0 4.0560021-8.0177623 1.5415322-11.7724372h8.522v14c0 1.1045695-.8954305 2-2 2h-28c-1.1045695 0-2-.8954305-2-2v-14z" fill-rule="nonzero"/><path id="Shape" d="m8 21h4c1.1045695 0 2-.8954305 2-2v-4c0-1.1045695-.8954305-2-2-2h-4c-1.1045695 0-2 .8954305-2 2v4c0 1.1045695.8954305 2 2 2zm0-6h4v4h-4z" fill-rule="nonzero"/><path id="Path" d="m7 26h4c.5522847 0 1-.4477153 1-1s-.4477153-1-1-1h-4c-.55228475 0-1 .4477153-1 1s.44771525 1 1 1z"/><path id="Path" d="m7 31h18c.5522847 0 1-.4477153 1-1s-.4477153-1-1-1h-18c-.55228475 0-1 .4477153-1 1s.44771525 1 1 1z"/><path id="Path" d="m15 26h4c.5522847 0 1-.4477153 1-1s-.4477153-1-1-1h-4c-.5522847 0-1 .4477153-1 1s.4477153 1 1 1z"/><path id="Path" d="m23 26h4c.5522847 0 1-.4477153 1-1s-.4477153-1-1-1h-4c-.5522847 0-1 .4477153-1 1s.4477153 1 1 1z"/><path id="Path" d="m31 26h4c.5522847 0 1-.4477153 1-1s-.4477153-1-1-1h-4c-.5522847 0-1 .4477153-1 1s.4477153 1 1 1z"/><path id="Path" d="m25 15h3c.5522847 0 1-.4477153 1-1s-.4477153-1-1-1h-3c-.5522847 0-1 .4477153-1 1s.4477153 1 1 1z"/><path id="Path" d="m32 15h6c.5522847 0 1-.4477153 1-1s-.4477153-1-1-1h-6c-.5522847 0-1 .4477153-1 1s.4477153 1 1 1z"/></g></g></g></svg>