<svg height="512" viewBox="0 0 60 60" width="512" xmlns="http://www.w3.org/2000/svg"><g id="Page-1" fill="none" fill-rule="evenodd"><g id="002---Delivery-Service"><path id="Path" d="m58.14 39.13-12.49 12.71c-.7044456.7144301-1.6571305 1.1298866-2.66 1.16h-19.01c-1.2586213.0017253-2.443447.5941381-3.2 1.6l-2.87 3.35c-.570008.6664133-1.4030645 1.0500577-2.28 1.05h-12.47c-.57360154.0024051-1.12440449-.2243933-1.53000559-.6299944-.40560111-.4056011-.63239948-.9564041-.62999441-1.5300056-.0000203-.5391201.19945441-1.0591792.56-1.46l9.44-10.36c.71-.73 1.38-1.42 1.98-2.02.41-.41.81-.78 1.22-1.12v-.01c2.9786103-2.606794 6.8335839-3.9894398 10.79-3.87 1.6168967-.0027926 3.1839196.5596377 4.43 1.59.3471069.2734717.7781852.4183423 1.22.41h11.19c1.4432536-.0163783 2.7145399.9463433 3.09 2.34l9.13-7.64c.5445864-.4603867 1.2369428-.7089249 1.95-.7.8868112.0102881 1.7256914.4041971 2.3 1.08.9898731 1.1923887.9208547 2.9394178-.16 4.05z" fill="#ffe0b2"/><path id="Path" d="m58.3 35.08c-.5743086-.6758029-1.4131888-1.0697119-2.3-1.08-.5399411-.0059609-1.0711873.136189-1.536.411.3156114.1724461.5985582.3988712.836.669.9898731 1.1923887.9208547 2.9394178-.16 4.05l-12.49 12.71c-.7044456.7144301-1.6571305 1.1298866-2.66 1.16h3c1.0028695-.0301134 1.9555544-.4455699 2.66-1.16l12.49-12.71c1.0808547-1.1105822 1.1498731-2.8576113.16-4.05z" fill="#dfc49c"/><path id="Path" d="m17.78 54.6-2.87 3.35c-.570008.6664133-1.4030645 1.0500577-2.28 1.05h3c.8769355.0000577 1.709992-.3835867 2.28-1.05l2.87-3.35c.756553-1.0058619 1.9413787-1.5982747 3.2-1.6h-3c-1.2586213.0017253-2.443447.5941381-3.2 1.6z" fill="#dfc49c"/><path id="Path" d="m56 3v31c-.7130572-.0089249-1.4054136.2396133-1.95.7l-9.13 7.64c-.3754601-1.3936567-1.6467464-2.3563783-3.09-2.34h-11.19c-.4418148.0083423-.8728931-.1365283-1.22-.41-1.2460804-1.0303623-2.8131033-1.5927926-4.43-1.59-3.9564161-.1194398-7.8113897 1.263206-10.79 3.87-.1329736-.2706581-.2014302-.5684445-.2-.87v-38c.0032948-1.10320187.8967981-1.9967052 2-2h38c1.1032019.0032948 1.9967052.89679813 2 2z" fill="#91562d"/><path id="Path" d="m54 1h-3c1.1032019.0032948 1.9967052.89679813 2 2v31c-.7130572-.0089249-1.4054136.2396133-1.95.7l-7.188 6.015c.5238481.4086774.8962103.9805947 1.058 1.625l9.13-7.64c.5445864-.4603867 1.2369428-.7089249 1.95-.7v-31c-.0032948-1.10320187-.8967981-1.9967052-2-2z" fill="#6d4122"/><path id="Path" d="m42 1v12c0 .5522847-.4477153 1-1 1h-6v-13z" fill="#ffdc00"/><path id="Path" d="m35 1v13h-6c-.5522847 0-1-.4477153-1-1v-12z" fill="#ffeb3a"/><rect id="Rectangle" fill="#f5f5f5" height="6" rx="1" width="9" x="42" y="26"/><g fill="#000"><path id="Shape" d="m57 33.141v-30.141c0-1.65685425-1.3431458-3-3-3h-38c-1.6568542 0-3 1.34314575-3 3v38c.0034568.1899847.0252242.3791936.065.565-.265.241-.531.469-.792.73-.6.6-1.276 1.293-2.008 2.055l-9.44 10.358c-.84383893.9258262-1.06156344 2.2625154-.55515151 3.4082751.50641192 1.1457597 1.64146734 1.8845365 2.89415151 1.8837249h12.463c1.1685485-.0005075 2.2784435-.5119798 3.038-1.4l2.918-3.4c.568311-.7533202 1.4563572-1.1973433 2.4-1.2h19.038c1.2615656-.0361595 2.4602259-.5589832 3.345-1.459l12.486-12.7c1.0104227-1.0199992 1.3977252-2.5027375 1.0152052-3.8865839-.3825199-1.3838464-1.4763635-2.4571694-2.8672052-2.8134161zm-16-20.141h-5v-11h5zm-7-11v11h-5v-11zm-19 1c0-.55228475.4477153-1 1-1h11v11c0 1.1045695.8954305 2 2 2h12c1.1045695 0 2-.8954305 2-2v-11h11c.5522847 0 1 .44771525 1 1v30.138c-.5847777.1424637-1.1295082.4160258-1.593.8l-8.135 6.806c-.7982462-1.1037467-2.0808823-1.7534468-3.443-1.744h-11.194c-.207573.0077359-.411432-.0565662-.577-.182-1.4292437-1.1755421-3.2224225-1.8181597-5.073-1.818-3.5626929-.1020824-7.0636403.9452216-9.985 2.987zm42.427 35.434-12.484 12.7c-.5144305.5281277-1.2122609.838195-1.949.866h-19.009c-1.5512884-.0013887-3.0150624.7184881-3.961 1.948l-2.877 3.352c-.3800054.4442755-.9353764.7000385-1.52.7h-12.463c-.46125596.0021572-.88011794-.2687157-1.06737334-.690257-.18725539-.4215414-.10744699-.9139316.20337334-1.254743l9.423-10.338c.7-.733 1.366-1.413 1.961-2.008 2.9188231-3.115608 7.0334634-4.8301325 11.301-4.709 1.3871585-.0074814 2.7325979.4740443 3.8 1.36.5242276.4205082 1.177997.6463237 1.85.639h11.194c.9536662-.0161165 1.8059481.5926563 2.1 1.5.007726.0526591.0201079.104529.037.155.015197.0799074.0248865.1607644.029.242.0291145.5485484-.1686748 1.0849243-.5469494 1.4832475s-.9037306.6235246-1.4530506.6227525h-12.007c-.5522847 0-1 .4477153-1 1s.4477153 1 1 1h12.005c1.0975416.0014565 2.1474667-.4481298 2.9038258-1.2434414.7563591-.7953117 1.1526986-1.8664725 1.0961742-2.9625586v-.043l8.7-7.282c.8254246-.6945191 2.051002-.6174875 2.7829683.1749189.7319664.7924064.7117226 2.0202353-.0459683 2.7880811z" fill-rule="nonzero"/><path id="Path" d="m21.707 25.293c-.3904999-.3903819-1.0235001-.3903819-1.414 0l-2 2c-.3789722.3923789-.3735524 1.0160848.0121814 1.4018186s1.0094397.3911536 1.4018186.0121814l.293-.293v4.586c0 .5522847.4477153 1 1 1s1-.4477153 1-1v-4.586l.293.293c.3923789.3789722 1.0160848.3735524 1.4018186-.0121814s.3911536-1.0094397.0121814-1.4018186z"/><path id="Path" d="m27.707 28.707.293-.293v4.586c0 .5522847.4477153 1 1 1s1-.4477153 1-1v-4.586l.293.293c.3923789.3789722 1.0160848.3735524 1.4018186-.0121814s.3911536-1.0094397.0121814-1.4018186l-2-2c-.3904999-.3903819-1.0235001-.3903819-1.414 0l-2 2c-.3789722.3923789-.3735524 1.0160848.0121814 1.4018186s1.0094397.3911536 1.4018186.0121814z"/><path id="Shape" d="m43 33h7c1.1045695 0 2-.8954305 2-2v-4c0-1.1045695-.8954305-2-2-2h-7c-1.1045695 0-2 .8954305-2 2v4c0 1.1045695.8954305 2 2 2zm0-6h7v4h-7z" fill-rule="nonzero"/></g></g></g></svg>