<?xml version="1.0"?>
<svg xmlns="http://www.w3.org/2000/svg" xmlns:xlink="http://www.w3.org/1999/xlink" xmlns:svgjs="http://svgjs.com/svgjs" version="1.1" width="512" height="512" x="0" y="0" viewBox="0 0 56 56" style="enable-background:new 0 0 512 512" xml:space="preserve" class=""><g><g xmlns="http://www.w3.org/2000/svg" id="Page-1" fill="none" fill-rule="evenodd"><g id="018---Shoes" fill="rgb(0,0,0)" fill-rule="nonzero"><path id="Shape" d="m36.907 14.534c.6515186.6399675.8709805 1.6006014.562 2.46-.172.493-1.04 2.943-2.5 6.653.3646208.0647652.7141476.1963039 1.031.388l2.015 1.207c1.28689.7733955 1.803874 2.3790365 1.21 3.758l-1.862 4.353c.084.023.17.052.253.074l11.217-11.214c1.5615278-1.5619994 1.5615278-4.0940006 0-5.656l-1.42-1.42-7.826 7.83c-.3923789.3789722-1.0160848.3735524-1.4018186-.0121814s-.3911536-1.0094397-.0121814-1.4018186l7.121-7.121-3.894-3.889-3.465.5c-.9318294.1270143-1.8695054-.1885035-2.535-.853l-.765-.765c-.3698092-.36921155-.9615399-.39143413-1.358-.051-1.942 1.7-4.194 5.234-8.431 8.062 3.792.064 7.484-2.092 9.1-3.184.9275695-.6256699 2.1682099-.5075137 2.961.282zm4.284 9.657 5.517-5.516c.2510745-.2599566.6228779-.3642126.9725073-.2726972.3496295.0915155.6226744.3645604.7141899.7141899.0915154.3496294-.0127406.7214328-.2726972.9725073l-5.517 5.516c-.2510745.2599566-.6228779.3642126-.9725073.2726972-.3496295-.0915155-.6226744-.3645604-.7141899-.7141899-.0915154-.3496294.0127406-.7214328.2726972-.9725073z" fill="#202020" data-original="#000000" style=""/><path id="Shape" d="m55 42.5-2.8-2.1c-.7533202-.568311-1.1973433-1.4563572-1.2-2.4v-1.081c.0015151-.5239168-.4015961-.9601843-.924-1-1.0340102-.0335247-2.0690953-.0068128-3.1.08-2.8563368.2723107-5.7363667.1576073-8.562-.341 2.636 2.723 6.767 3.807 8.682 4.176.9948847.1974012 1.7520709 1.0088977 1.8801929 2.0150525.1281221 1.0061549-.4015288 1.9815149-1.3151929 2.4219475-1.369.659-4.425 2.089-8.4 3.725h15.739z" fill="#202020" data-original="#000000" style=""/><path id="Shape" d="m30.938 8.864c.342-.361.677-.7 1.015-.993 1.1886562-1.03541071 2.9759083-.97424833 4.091.14l.765.765c.2221942.22216124.5358853.32697186.847.283l1.981-.283-8.486-8.485c-.3966954-.3751231-1.0173046-.3751231-1.414 0l-.9.9c-.3177619.33101599-.3739279.83405044-.137 1.227 1.2082748 1.95921551 1.9722166 4.15955899 2.238 6.446z" fill="#202020" data-original="#000000" style=""/><path id="Shape" d="m22.485 38.857-2.1-1.259c-2.0099788 1.2673105-4.1274604 2.3554979-6.328 3.252h1.353c.6713677.0177054 1.3402088.0896058 2 .215 4.9152392.8997308 9.09478 4.1149055 11.225 8.635 2.446-.668 3.986-1.275 5.029-1.646 6.223-2.333 11.265-4.686 13.143-5.589.118547-.0523957.1944621-.1703984.193-.3.0099338-.1798813-.1157135-.3389773-.293-.371-2.625-.506-9.04-2.241-11.6-7.351-.131598-.2630177-.1407423-.5706298-.025-.841l2.31-5.4c.1959762-.4605927.0212144-.9951331-.409-1.251l-2.015-1.208c-.4147342-.2589542-.9567448-.1737324-1.272.2-.371.433-.821.943-1.331 1.5l1.151.691c.4622053.2892402.6075113.8954316.3266637 1.3627839-.2808477.4673523-.8843167.6235797-1.3566637.3512161l-1.531-.918c-.48.4926667-.9966667 1.005-1.55 1.537l1.111.667c.4622053.2892402.6075113.8954316.3266637 1.3627839-.2808477.4673523-.8843167.6235797-1.3566637.3512161l-1.605-.963c-.535.48-1.1.967-1.687 1.455l1.322.794c.4622053.2892402.6075113.8954316.3266637 1.3627839-.2808477.4673523-.8843167.6235797-1.3566637.3512161l-1.956-1.164c-.737.571-1.5 1.138-2.3 1.69l1.281.769c.4622053.2892402.6075113.8954316.3266637 1.3627839-.2808477.4673523-.8843167.6235797-1.3566637.3512161z" fill="#202020" data-original="#000000" style=""/><path id="Shape" d="m50.207 33.927c1.5724341.1087571 2.7925534 1.4158094 2.793 2.992v1.081c.0010922.3144985.1490565.6104272.4.8l1.6 1.2v-12c0-.5522847-.4477153-1-1-1h-1.27c-.4603516.0069168-.8582645.3231117-.969.77-.5312475 2.2395247-1.5463441 4.3355933-2.974 6.141.498-.011.971-.011 1.42.016z" fill="#202020" data-original="#000000" style=""/><path id="Shape" d="m19 51c2.5656527.0425668 5.1270046-.2260595 7.628-.8-1.8971537-3.7528403-5.4379665-6.4044737-9.573-7.169-.5434175-.1038204-1.0940687-.1653382-1.647-.184-12.2 0-7.367-.037-10.346.148-.237 0-4.411.06-4.989 3.184-.017.089-.031.179-.042.272 1.795 1.063 8.003 4.549 11.969 4.549z" fill="#202020" data-original="#000000" style=""/><path id="Shape" d="m34.177 50c-.874.319-1.692.625-2.885 1-3.9533502 1.3625588-8.1106097 2.0389759-12.292 2h-7c-3.856 0-9.194-2.685-11.869-4.181.40568 4.051261 3.79762292 7.1466406 7.869 7.181h44c2.209139 0 4-1.790861 4-4v-2zm18.823 4h-10c-.5522847 0-1-.4477153-1-1s.4477153-1 1-1h10c.5522847 0 1 .4477153 1 1s-.4477153 1-1 1z" fill="#202020" data-original="#000000" style=""/><path id="Shape" d="m17.485 35.857c-.3132279-.1806127-.5045637-.516242-.5004101-.8777878.0041537-.3615459.2031497-.6926908.5204443-.8660598.3172946-.1733689.7034632-.1619565 1.0099658.0298476l1.827 1.1c.812-.539 1.6-1.092 2.351-1.657l-1.208-.725c-.3132279-.1806127-.5045637-.516242-.5004101-.8777878.0041537-.3615459.2031497-.6926908.5204443-.8660598.3172946-.1733689.7034632-.1619565 1.0099658.0298476l1.862 1.117c.5933333-.484 1.16-.9656667 1.7-1.445l-1.6-.958c-.3132279-.1806127-.5045637-.516242-.5004101-.8777878.0041537-.3615459.2031497-.6926908.5204443-.8660598.3172946-.1733689.7034632-.1619565 1.0099658.0298476l2.112 1.267c.558-.5273333 1.0796667-1.0366667 1.565-1.528l-1.707-1.025c-.3132279-.1806127-.5045637-.516242-.5004101-.8777878.0041537-.3615459.2031497-.6926908.5204443-.8660598.3172946-.1733689.7034632-.1619565 1.0099658.0298476l2.1 1.258c1.613-1.738 1.538-1.793 1.965-2.139 1.765-4.425 2.814-7.386 3.009-7.943.0485562-.1421521.0018317-.2994625-.11645-.3920602-.1182818-.0925977-.2822086-.1001971-.40855-.0189398-2.228 1.506-7.986 4.812-13.417 3.011-.279075-.0925465-.5032805-.3032192-.613-.576l-2.19-5.45c-.1854673-.4666472-.6882409-.7233827-1.175-.6l-2.273.569c-.4745783.1173348-.7947555.560592-.757 1.048.05.588.09 1.27.121 2l1.3-.326c.5359923-.1336529 1.0788471.1925077 1.2125.7285s-.1925077 1.0788471-.7285 1.2125l-1.74.435c.008.7033333.0033333 1.4313333-.014 2.184l1.27-.317c.5359923-.1336529 1.0788471.1925077 1.2125.7285s-.1925077 1.0788471-.7285 1.2125l-1.832.458c-.042.766-.1 1.508-.16 2.221l1.508-.377c.5300108-.1192665 1.0582917.2064318 1.1897969.7335393.1315052.5271076-.1818752 1.0627873-.7057969 1.2064607l-2.226.557c-.121.964-.268 1.9-.435 2.82l1.469-.367c.5300108-.1192665 1.0582917.2064318 1.1897969.7335393.1315052.5271076-.1818752 1.0627873-.7057969 1.2064607l-2.4.6c-.6389777 2.9117783-1.6159326 5.7389402-2.911 8.424 2.7763827-.8511211 5.4363848-2.0435705 7.919-3.55z" fill="#202020" data-original="#000000" style=""/></g></g></g></svg>
